<?xml version='1.0' encoding='iso-8859-1'?>
<svg version="1.1" xmlns="http://www.w3.org/2000/svg" viewBox="0 0 137.145 137.145" xmlns:xlink="http://www.w3.org/1999/xlink" enable-background="new 0 0 137.145 137.145">
  <g>
    <g>
      <path d="m50.751,58.285l-9.612,10.287 38.447,41.147 9.612-10.287-28.835-30.86-9.612-10.287zm58.965-58.285h-82.287c-15.149,0-27.429,12.28-27.429,27.429v82.286c0,15.148 12.28,27.429 27.429,27.429h82.287c15.149,0 27.429-12.28 27.429-27.429v-82.286c0-15.149-12.281-27.429-27.429-27.429zm13.714,102.859c0,11.361-9.21,20.572-20.572,20.572h-68.572c-11.361,0-20.572-9.211-20.572-20.572v-68.573c0-11.36 9.21-20.571 20.572-20.571h68.572c11.361,0 20.572,9.211 20.572,20.571v68.573zm-43.844-75.434l-28.835,30.86 9.612,10.287 28.835-30.861-9.612-10.286z"/>
    </g>
  </g>
</svg>
